<mxfile host="app.diagrams.net" modified="2022-03-25T05:12:37.405Z" agent="5.0 (Macintosh; Intel Mac OS X 10_15_7) AppleWebKit/537.36 (KHTML, like Gecko) Chrome/99.0.4844.51 Safari/537.36" etag="KHLtQgAKon-Se8zJaO1G" version="17.1.2" type="github">
  <diagram id="s_FnStZ6lYs9shnKex69" name="第 1 页">
    <mxGraphModel dx="749" dy="566" grid="1" gridSize="10" guides="1" tooltips="1" connect="1" arrows="1" fold="1" page="1" pageScale="1" pageWidth="850" pageHeight="1100" math="0" shadow="0">
      <root>
        <mxCell id="0" />
        <mxCell id="1" parent="0" />
        <mxCell id="KmVPU4ovcuLw7qfWmrZJ-9" style="edgeStyle=orthogonalEdgeStyle;rounded=0;orthogonalLoop=1;jettySize=auto;html=1;exitX=0.5;exitY=1;exitDx=0;exitDy=0;exitPerimeter=0;entryX=0.5;entryY=0;entryDx=0;entryDy=0;" edge="1" parent="1" source="KmVPU4ovcuLw7qfWmrZJ-1" target="KmVPU4ovcuLw7qfWmrZJ-3">
          <mxGeometry relative="1" as="geometry" />
        </mxCell>
        <mxCell id="KmVPU4ovcuLw7qfWmrZJ-1" value="开始" style="strokeWidth=2;html=1;shape=mxgraph.flowchart.start_1;whiteSpace=wrap;" vertex="1" parent="1">
          <mxGeometry x="240" y="70" width="100" height="60" as="geometry" />
        </mxCell>
        <mxCell id="KmVPU4ovcuLw7qfWmrZJ-10" style="edgeStyle=orthogonalEdgeStyle;rounded=0;orthogonalLoop=1;jettySize=auto;html=1;exitX=0.5;exitY=1;exitDx=0;exitDy=0;" edge="1" parent="1" source="KmVPU4ovcuLw7qfWmrZJ-3" target="KmVPU4ovcuLw7qfWmrZJ-8">
          <mxGeometry relative="1" as="geometry" />
        </mxCell>
        <mxCell id="KmVPU4ovcuLw7qfWmrZJ-3" value="获取所有标签信息" style="rounded=1;whiteSpace=wrap;html=1;" vertex="1" parent="1">
          <mxGeometry x="230" y="170" width="120" height="60" as="geometry" />
        </mxCell>
        <mxCell id="KmVPU4ovcuLw7qfWmrZJ-12" style="edgeStyle=orthogonalEdgeStyle;rounded=0;orthogonalLoop=1;jettySize=auto;html=1;exitX=0.5;exitY=1;exitDx=0;exitDy=0;entryX=0.5;entryY=0;entryDx=0;entryDy=0;" edge="1" parent="1" source="KmVPU4ovcuLw7qfWmrZJ-5" target="KmVPU4ovcuLw7qfWmrZJ-7">
          <mxGeometry relative="1" as="geometry" />
        </mxCell>
        <mxCell id="KmVPU4ovcuLw7qfWmrZJ-5" value="筛选出class为行业的标签信息，写入到缓存1中" style="rounded=1;whiteSpace=wrap;html=1;" vertex="1" parent="1">
          <mxGeometry x="390" y="70" width="120" height="60" as="geometry" />
        </mxCell>
        <mxCell id="KmVPU4ovcuLw7qfWmrZJ-7" value="遍历行业标签，获取parentID为该行业的标签信息，写入到缓存2" style="rounded=1;whiteSpace=wrap;html=1;" vertex="1" parent="1">
          <mxGeometry x="390" y="170" width="120" height="60" as="geometry" />
        </mxCell>
        <mxCell id="KmVPU4ovcuLw7qfWmrZJ-11" style="edgeStyle=orthogonalEdgeStyle;rounded=0;orthogonalLoop=1;jettySize=auto;html=1;exitX=1;exitY=0.5;exitDx=0;exitDy=0;entryX=-0.008;entryY=0.4;entryDx=0;entryDy=0;entryPerimeter=0;" edge="1" parent="1" source="KmVPU4ovcuLw7qfWmrZJ-8" target="KmVPU4ovcuLw7qfWmrZJ-5">
          <mxGeometry relative="1" as="geometry" />
        </mxCell>
        <mxCell id="KmVPU4ovcuLw7qfWmrZJ-8" value="清空系统所有缓存" style="rounded=1;whiteSpace=wrap;html=1;" vertex="1" parent="1">
          <mxGeometry x="230" y="260" width="120" height="60" as="geometry" />
        </mxCell>
        <mxCell id="KmVPU4ovcuLw7qfWmrZJ-13" value="获取parentID为空的标签构建树形标签信息的根结构" style="rounded=1;whiteSpace=wrap;html=1;" vertex="1" parent="1">
          <mxGeometry x="390" y="260" width="120" height="60" as="geometry" />
        </mxCell>
        <mxCell id="KmVPU4ovcuLw7qfWmrZJ-14" value="获取parentID为空的标签构建树形标签信息的根结构" style="rounded=1;whiteSpace=wrap;html=1;" vertex="1" parent="1">
          <mxGeometry x="560" y="70" width="120" height="60" as="geometry" />
        </mxCell>
      </root>
    </mxGraphModel>
  </diagram>
</mxfile>
